<svg width="31" height="36" viewBox="0 0 31 36" fill="none" xmlns="http://www.w3.org/2000/svg">
<path d="M30.1044 7.92592C31.0603 7.13034 31.199 5.69819 30.2903 4.84901C28.2549 2.94678 25.7975 1.53566 23.1064 0.73951C19.6926 -0.270444 16.056 -0.245407 12.6564 0.811454C9.25686 1.86831 6.24702 3.90953 4.00754 6.67698C1.76806 9.44443 0.399513 12.8138 0.0749652 16.3591C-0.249583 19.9043 0.484443 23.4662 2.18422 26.5942C3.884 29.7223 6.47318 32.2761 9.62436 33.9326C12.7755 35.5892 16.3472 36.2741 19.8876 35.9008C22.6785 35.6065 25.3513 34.665 27.6983 33.1639C28.746 32.4938 28.8697 31.0603 28.0741 30.1044V30.1044C27.2785 29.1485 25.8656 29.0376 24.7908 29.6634C23.1506 30.6184 21.3196 31.221 19.4153 31.4219C16.7607 31.7018 14.0827 31.1882 11.72 29.9462C9.35728 28.7041 7.41593 26.7893 6.14145 24.4439C4.86697 22.0985 4.3166 19.4278 4.55995 16.7696C4.80329 14.1114 5.82941 11.5851 7.50856 9.51009C9.18771 7.43507 11.4445 5.90458 13.9934 5.11216C16.5424 4.31973 19.2691 4.30096 21.8288 5.05821C23.665 5.60145 25.356 6.52653 26.7956 7.76349C27.7389 8.57399 29.1485 8.7215 30.1044 7.92592V7.92592Z" fill="url(#paint0_linear_18_20)"/>
<defs>
<linearGradient id="paint0_linear_18_20" x1="6.3367" y1="6.76968" x2="15.2424" y2="31.4487" gradientUnits="userSpaceOnUse">
<stop stop-color="#71CFE0"/>
<stop offset="0.479167" stop-color="#609ACF"/>
<stop offset="1" stop-color="#1D306B"/>
</linearGradient>
</defs>
</svg>
