<svg width="530" height="800" viewBox="0 0 530 800" fill="none" xmlns="http://www.w3.org/2000/svg">
<g clip-path="url(#clip0_1430_34)">
<path d="M-135 -365H397C397 -365 672 -214.5 397 184C122 582.5 704 945.5 704 945.5L-135 1007V-365Z" fill="url(#paint0_linear_1430_34)"/>
<path d="M20.4045 -202.948L19.9903 -203.228L20.4045 -202.948ZM150.434 -32.3985L150.112 -32.016L150.112 -32.016L150.434 -32.3985ZM250.692 415.427L250.829 415.908L250.692 415.427ZM0.0427202 267.589L0.517637 267.433L0.517637 267.433L0.0427202 267.589ZM205.547 312.215L205.119 311.958L205.547 312.215ZM58.5554 245.747C58.3254 245.594 58.015 245.657 57.8622 245.887L55.372 249.635C55.2192 249.865 55.2818 250.176 55.5118 250.328C55.7418 250.481 56.0521 250.419 56.2049 250.189L58.4185 246.857L61.7502 249.07C61.9802 249.223 62.2905 249.161 62.4433 248.931C62.5961 248.701 62.5335 248.39 62.3035 248.237L58.5554 245.747ZM121.674 -139.608C109.906 -157.705 90.7242 -182.626 71.4259 -198.542C61.7835 -206.494 52.056 -212.245 43.1699 -213.724C38.7164 -214.465 34.4622 -214.135 30.5404 -212.46C26.6184 -210.784 23.0657 -207.778 19.9903 -203.228L20.8188 -202.668C23.8065 -207.088 27.2181 -209.953 30.9333 -211.54C34.6487 -213.127 38.7044 -213.454 43.0057 -212.738C51.6291 -211.303 61.19 -205.687 70.7896 -197.77C89.9753 -181.948 109.092 -157.122 120.836 -139.063L121.674 -139.608ZM19.9903 -203.228C12.2879 -191.832 12.585 -178.808 18.3014 -164.905C24.0116 -151.018 35.1494 -136.195 49.2368 -121.095C77.4114 -90.8964 117.538 -59.4406 150.112 -32.016L150.756 -32.781C118.135 -60.2447 78.0883 -91.6368 49.968 -121.777C35.9079 -136.847 24.8677 -151.566 19.2263 -165.286C13.5911 -178.99 13.363 -191.637 20.8188 -202.668L19.9903 -203.228ZM150.112 -32.016C181.965 -5.19843 196.606 16.2514 202.74 34.6348C208.872 53.0125 206.528 68.3887 204.259 83.1666C201.992 97.9321 199.79 112.135 206.414 127.95C213.033 143.756 228.428 161.095 261.128 182.297L261.672 181.458C229.038 160.298 213.841 143.096 207.336 127.564C200.835 112.041 202.977 98.1065 205.248 83.3183C207.516 68.5425 209.905 52.9479 203.688 34.3183C197.474 15.6945 182.686 -5.89926 150.756 -32.781L150.112 -32.016ZM261.128 182.297C293.729 203.435 313.711 227.297 324.276 251.49C334.841 275.683 336.002 300.238 330.909 322.788C320.717 367.919 285.492 404.967 250.555 414.946L250.829 415.908C286.158 405.817 321.622 368.453 331.885 323.008C337.02 300.269 335.85 275.495 325.193 251.09C314.536 226.686 294.406 202.682 261.672 181.458L261.128 182.297ZM250.555 414.946C221.969 423.111 173.201 427.994 124.719 409.961C76.2632 391.938 28.0364 351.006 0.517637 267.433L-0.432197 267.745C27.176 351.591 75.6132 392.764 124.37 410.898C173.1 429.023 222.094 424.115 250.829 415.908L250.555 414.946ZM0.517637 267.433C-16.5274 215.667 -7.98864 185.924 12.986 171.924C23.5087 164.9 37.231 161.779 52.6051 161.873C67.9762 161.966 84.9651 165.272 101.984 171.063C136.028 182.649 170.112 204.156 191.524 229.65C212.934 255.143 221.597 284.508 205.119 311.958L205.976 312.472C222.765 284.505 213.84 254.667 192.289 229.007C170.739 203.347 136.488 181.749 102.306 170.117C85.2113 164.299 68.114 160.967 52.6112 160.873C37.1114 160.779 23.1721 163.922 12.4308 171.092C-9.12266 185.479 -17.5217 215.845 -0.432197 267.745L0.517637 267.433ZM205.119 311.958C202.988 315.507 199.339 318.157 194.499 319.935C189.658 321.713 183.654 322.606 176.87 322.66C163.303 322.767 146.698 319.513 130.23 313.371C113.764 307.23 97.4631 298.213 84.4952 286.818C71.526 275.423 61.9161 261.673 58.7688 246.065L57.7885 246.263C60.9921 262.15 70.7592 276.08 83.8351 287.569C96.9122 299.06 113.325 308.133 129.881 314.308C146.435 320.481 163.162 323.768 176.878 323.66C183.736 323.606 189.862 322.703 194.844 320.874C199.826 319.044 203.693 316.275 205.976 312.472L205.119 311.958Z" fill="#EEF6F8"/>
<path d="M458.092 902.881L458.546 903.091L458.092 902.881ZM302.259 755.535L301.846 755.818L301.846 755.818L302.259 755.535ZM131.09 329.742L130.876 329.289L131.09 329.742ZM402.3 435.22L401.857 435.451L402.3 435.22ZM192.289 424.322L192.754 424.506L192.289 424.322ZM348.076 466.213C348.328 466.327 348.624 466.215 348.738 465.963L350.591 461.862C350.705 461.611 350.593 461.315 350.341 461.201C350.09 461.087 349.793 461.199 349.68 461.451L348.033 465.096L344.387 463.448C344.136 463.335 343.84 463.447 343.726 463.698C343.612 463.95 343.724 464.246 343.976 464.36L348.076 466.213ZM347.933 856.703C362.465 872.665 385.415 894.167 407.028 906.762C417.826 913.055 428.354 917.162 437.362 917.188C441.877 917.201 446.022 916.189 449.622 913.903C453.223 911.617 456.244 908.078 458.546 903.091L457.638 902.672C455.402 907.516 452.497 910.893 449.086 913.059C445.676 915.225 441.726 916.201 437.365 916.188C428.623 916.162 418.282 912.163 407.531 905.898C386.045 893.376 363.174 871.958 348.672 856.03L347.933 856.703ZM458.546 903.091C461.427 896.846 461.886 890.916 460.366 885.194C458.849 879.485 455.373 874.02 450.448 868.674C440.606 857.992 424.868 847.671 406.988 836.726C389.083 825.767 369.006 814.17 350.388 800.913C331.772 787.657 314.653 772.768 302.671 755.253L301.846 755.818C313.924 773.473 331.15 788.442 349.808 801.728C368.464 815.012 388.591 826.638 406.466 837.579C424.364 848.534 439.98 858.788 449.712 869.351C454.573 874.628 457.939 879.953 459.399 885.45C460.856 890.935 460.427 896.627 457.638 902.672L458.546 903.091ZM302.671 755.253C289.479 735.967 282.791 718.16 277.955 701.304C273.128 684.48 270.12 668.482 264.326 653.01C258.516 637.496 249.886 622.439 233.766 607.345C217.654 592.259 194.075 577.151 158.388 561.503L157.987 562.418C193.611 578.04 217.081 593.093 233.082 608.075C249.076 623.05 257.626 637.971 263.39 653.361C269.169 668.794 272.13 684.627 276.993 701.58C281.848 718.501 288.574 736.416 301.846 755.818L302.671 755.253ZM158.388 561.503C122.805 545.899 99.2361 525.572 84.9078 503.399C70.58 481.227 65.474 457.181 66.863 434.105C69.6429 387.921 98.432 345.677 131.303 330.194L130.876 329.289C97.6373 344.946 68.6641 387.54 65.8648 434.045C64.4642 457.314 69.6143 481.575 84.0679 503.942C98.521 526.308 122.258 546.751 157.987 562.418L158.388 561.503ZM131.303 330.194C158.197 317.526 205.539 304.842 256.295 314.819C307.023 324.791 361.22 357.41 401.857 435.451L402.744 434.989C361.975 356.694 307.532 323.872 256.488 313.838C205.473 303.81 157.912 316.555 130.876 329.289L131.303 330.194ZM401.857 435.451C427.027 483.79 423.397 514.521 404.955 531.721C395.703 540.35 382.664 545.642 367.476 548.03C352.291 550.417 334.991 549.894 317.261 546.923C281.794 540.979 244.688 525.252 219.445 503.544C194.203 481.838 180.918 454.254 192.754 424.506L191.824 424.137C179.765 454.446 193.386 482.454 218.793 504.303C244.199 526.151 281.485 541.942 317.096 547.909C334.905 550.894 352.316 551.425 367.631 549.018C382.943 546.611 396.193 541.26 405.637 532.452C424.588 514.777 427.98 483.454 402.744 434.989L401.857 435.451ZM192.754 424.506C194.284 420.659 197.457 417.456 201.948 414.921C206.439 412.385 212.22 410.535 218.906 409.389C232.278 407.095 249.191 407.629 266.434 411.034C283.675 414.439 301.216 420.709 315.852 429.863C330.49 439.018 342.191 451.038 347.814 465.934L348.75 465.581C343.026 450.418 331.14 438.245 316.383 429.015C301.624 419.784 283.963 413.476 266.628 410.053C249.295 406.63 232.256 406.084 218.737 408.403C211.977 409.562 206.077 411.441 201.456 414.05C196.834 416.659 193.464 420.016 191.824 424.137L192.754 424.506Z" fill="#EEF6F8"/>
</g>
<defs>
<linearGradient id="paint0_linear_1430_34" x1="32" y1="-107" x2="468" y2="728.5" gradientUnits="userSpaceOnUse">
<stop stop-color="#71CFE0"/>
<stop offset="0.479167" stop-color="#609ACF"/>
<stop offset="1" stop-color="#1D306B"/>
</linearGradient>
<clipPath id="clip0_1430_34">
<rect width="530" height="800" fill="white"/>
</clipPath>
</defs>
</svg>
